<svg xmlns="http://www.w3.org/2000/svg" width="619.171" height="415.242" viewBox="0 0 619.171 415.242">
  <g id="Group_2908" data-name="Group 2908" transform="translate(-1301.83 -3001.846)">
    <g id="Group_2878" data-name="Group 2878" transform="translate(1562.83 3116)">
      <path id="Path_13389" data-name="Path 13389" d="M159.246,246.494v-37.44L126.738,190.3,94.3,209.055v37.44l32.438,18.755Z" transform="translate(132.978 -40.333)" fill="none" stroke="#fff" stroke-miterlimit="10" stroke-width="2"/>
      <path id="Path_13390" data-name="Path 13390" d="M112.446,165.864V128.355L80.008,109.6,47.5,128.355v37.509l32.508,18.755Z" transform="translate(147.27 -15.688)" fill="none" stroke="#fff" stroke-miterlimit="10" stroke-width="2"/>
      <path id="Path_13391" data-name="Path 13391" d="M18.946,111.894V74.455L-13.492,55.7-46,74.455v37.44l32.508,18.755Z" transform="translate(175.823 0.772)" fill="none" stroke="#fff" stroke-miterlimit="10" stroke-width="2"/>
      <path id="Path_13392" data-name="Path 13392" d="M18.946,219.864V182.355L-13.492,163.6-46,182.355v37.509l32.508,18.755Z" transform="translate(175.823 -32.179)" fill="none" stroke="#fff" stroke-miterlimit="10" stroke-width="2"/>
      <path id="Path_13393" data-name="Path 13393" d="M-27.754,138.564V101.055L-60.262,82.3-92.7,101.055v37.509l32.438,18.755Z" transform="translate(190.085 -7.351)" fill="none" stroke="#fff" stroke-miterlimit="10" stroke-width="2"/>
      <path id="Path_13394" data-name="Path 13394" d="M-74.554,111.894V74.455L-106.992,55.7-139.5,74.455v37.44l32.508,18.755Z" transform="translate(204.377 0.772)" fill="none" stroke="#fff" stroke-miterlimit="10" stroke-width="2"/>
      <path id="Path_13395" data-name="Path 13395" d="M-27.754,192.564V155.055L-60.262,136.3-92.7,155.055v37.509l32.438,18.685Z" transform="translate(190.085 -23.842)" fill="none" stroke="#fff" stroke-miterlimit="10" stroke-width="2"/>
      <path id="Path_13396" data-name="Path 13396" d="M159.246,31.264V-6.245L126.738-25,94.3-6.245V31.264l32.438,18.755Z" transform="translate(132.978 25.417)" fill="none" stroke="#fff" stroke-miterlimit="10" stroke-width="2"/>
      <path id="Path_13397" data-name="Path 13397" d="M112.446,57.964V20.455L80.008,1.7,47.5,20.455V57.964L80.008,76.649Z" transform="translate(147.27 17.263)" fill="none" stroke="#fff" stroke-miterlimit="10" stroke-width="2"/>
      <path id="Path_13398" data-name="Path 13398" d="M65.746,30.594V-6.915L33.238-25.6.8-6.915V30.594L33.238,49.349Z" transform="translate(161.531 25.6)" fill="none" stroke="#fff" stroke-miterlimit="10" stroke-width="2"/>
      <path id="Path_13399" data-name="Path 13399" d="M65.746,138.564V101.055L33.238,82.3.8,101.055v37.509l32.438,18.755Z" transform="translate(161.531 -7.351)" fill="none" stroke="#fff" stroke-miterlimit="10" stroke-width="2"/>
      <path id="Path_13400" data-name="Path 13400" d="M-74.554,219.864V182.355L-106.992,163.6l-32.53,18.426.022,37.838,32.508,18.755Z" transform="translate(204.377 -32.179)" fill="none" stroke="#fff" stroke-miterlimit="10" stroke-width="2"/>
      <path id="Path_13401" data-name="Path 13401" d="M-121.254,246.494v-37.44L-153.762,191.2v36.642L-186.2,209.055v37.44l32.438,18.755Z" transform="translate(218.638 -40.333)" fill="none" stroke="#fff" stroke-miterlimit="10" stroke-width="2"/>
      <path id="Path_13402" data-name="Path 13402" d="M112.446,273.864V236.355L80.008,217.6,47.5,236.355v37.509l32.508,18.685Z" transform="translate(147.27 -48.67)" fill="none" stroke="#fff" stroke-miterlimit="10" stroke-width="2"/>
      <path id="Path_13403" data-name="Path 13403" d="M18.946,273.864V236.355L-13.492,217.6-46,236.355v37.509l32.508,18.685Z" transform="translate(175.823 -48.67)" fill="none" stroke="#fff" stroke-miterlimit="10" stroke-width="2"/>
      <path id="Path_13404" data-name="Path 13404" d="M205.946,327.794v-37.44L173.508,271.6,141,290.355v37.44l32.508,18.755Z" transform="translate(118.716 -65.161)" fill="none" stroke="#fff" stroke-miterlimit="10" stroke-width="2"/>
      <path id="Path_13405" data-name="Path 13405" d="M159.246,354.464V316.955L126.738,298.2,94.3,316.955v37.509l32.438,18.755Z" transform="translate(132.978 -73.284)" fill="none" stroke="#fff" stroke-miterlimit="10" stroke-width="2"/>
      <path id="Path_13406" data-name="Path 13406" d="M205.946,219.864V182.355L173.508,163.6,141,182.355v37.509l32.508,18.755Z" transform="translate(118.716 -32.179)" fill="none" stroke="#fff" stroke-miterlimit="10" stroke-width="2"/>
      <path id="Path_13407" data-name="Path 13407" d="M252.746,138.564V101.055L220.238,82.3,187.8,101.055v37.509l32.438,18.755Z" transform="translate(104.424 -7.351)" fill="none" stroke="#fff" stroke-miterlimit="10" stroke-width="2"/>
      <path id="Path_13408" data-name="Path 13408" d="M-168.023,273.864V236.355L-200.462,217.6v37.405L-232.9,273.864v0l32.438,18.685Z" transform="translate(232.9 -48.67)" fill="none" stroke="#fff" stroke-miterlimit="10" stroke-width="2"/>
      <path id="Path_13409" data-name="Path 13409" d="M205.946,165.864V128.355L173.508,109.6,141,128.355v37.509l32.508,18.755Z" transform="translate(118.716 -15.688)" fill="none" stroke="#fff" stroke-miterlimit="10" stroke-width="2"/>
      <path id="Path_13410" data-name="Path 13410" d="M112.446,327.794v-37.44L80.008,271.6,47.5,290.355v37.44l32.508,18.755Z" transform="translate(147.27 -65.161)" fill="none" stroke="#fff" stroke-miterlimit="10" stroke-width="2"/>
    </g>
    <g id="Group_2879" data-name="Group 2879" transform="translate(1302.83 3003)" opacity="0.8">
      <path id="Path_13389-2" data-name="Path 13389" d="M159.246,246.494v-37.44L126.738,190.3,94.3,209.055v37.44l32.438,18.755Z" transform="translate(132.978 -40.333)" fill="none" stroke="#fff" stroke-miterlimit="10" stroke-width="2"/>
      <path id="Path_13390-2" data-name="Path 13390" d="M112.446,165.864V128.355L80.008,109.6,47.5,128.355v37.509l32.508,18.755Z" transform="translate(147.27 -15.688)" fill="none" stroke="#fff" stroke-miterlimit="10" stroke-width="2"/>
      <path id="Path_13391-2" data-name="Path 13391" d="M18.946,111.894V74.455L-13.492,55.7-46,74.455v37.44l32.508,18.755Z" transform="translate(175.823 0.772)" fill="none" stroke="#fff" stroke-miterlimit="10" stroke-width="2"/>
      <path id="Path_13392-2" data-name="Path 13392" d="M18.946,219.864V182.355L-13.492,163.6-46,182.355v37.509l32.508,18.755Z" transform="translate(175.823 -32.179)" fill="none" stroke="#fff" stroke-miterlimit="10" stroke-width="2"/>
      <path id="Path_13393-2" data-name="Path 13393" d="M-27.754,138.564V101.055L-60.262,82.3-92.7,101.055v37.509l32.438,18.755Z" transform="translate(190.085 -7.351)" fill="none" stroke="#fff" stroke-miterlimit="10" stroke-width="2"/>
      <path id="Path_13394-2" data-name="Path 13394" d="M-74.554,111.894V74.455L-106.992,55.7-139.5,74.455v37.44l32.508,18.755Z" transform="translate(204.377 0.772)" fill="none" stroke="#fff" stroke-miterlimit="10" stroke-width="2"/>
      <path id="Path_13395-2" data-name="Path 13395" d="M-27.754,192.564V155.055L-60.262,136.3-92.7,155.055v37.509l32.438,18.685Z" transform="translate(190.085 -23.842)" fill="none" stroke="#fff" stroke-miterlimit="10" stroke-width="2"/>
      <path id="Path_13396-2" data-name="Path 13396" d="M159.246,31.264V-6.245L126.738-25,94.3-6.245V31.264l32.438,18.755Z" transform="translate(132.978 25.417)" fill="none" stroke="#fff" stroke-miterlimit="10" stroke-width="2"/>
      <path id="Path_13397-2" data-name="Path 13397" d="M112.446,57.964V20.455L80.008,1.7,47.5,20.455V57.964L80.008,76.649Z" transform="translate(147.27 17.263)" fill="none" stroke="#fff" stroke-miterlimit="10" stroke-width="2"/>
      <path id="Path_13398-2" data-name="Path 13398" d="M65.746,30.594V-6.915L33.238-25.6.8-6.915V30.594L33.238,49.349Z" transform="translate(161.531 25.6)" fill="none" stroke="#fff" stroke-miterlimit="10" stroke-width="2"/>
      <path id="Path_13399-2" data-name="Path 13399" d="M65.746,138.564V101.055L33.238,82.3.8,101.055v37.509l32.438,18.755Z" transform="translate(161.531 -7.351)" fill="none" stroke="#fff" stroke-miterlimit="10" stroke-width="2"/>
      <path id="Path_13400-2" data-name="Path 13400" d="M-74.554,219.864V182.355L-106.992,163.6-139.5,182.355v37.509l32.508,18.755Z" transform="translate(204.377 -32.179)" fill="none" stroke="#fff" stroke-miterlimit="10" stroke-width="2"/>
      <path id="Path_13401-2" data-name="Path 13401" d="M-121.254,246.494v-37.44L-153.762,190.3-186.2,209.055v37.44l32.438,18.755Z" transform="translate(218.638 -40.333)" fill="none" stroke="#fff" stroke-miterlimit="10" stroke-width="2"/>
      <path id="Path_13402-2" data-name="Path 13402" d="M112.446,273.864V236.355L80.008,217.6,47.5,236.355v37.509l32.508,18.685Z" transform="translate(147.27 -48.67)" fill="none" stroke="#fff" stroke-miterlimit="10" stroke-width="2"/>
      <path id="Path_13403-2" data-name="Path 13403" d="M18.946,273.864V236.355L-13.492,217.6-46,236.355v37.509l32.508,18.685Z" transform="translate(175.823 -48.67)" fill="none" stroke="#fff" stroke-miterlimit="10" stroke-width="2"/>
      <path id="Path_13404-2" data-name="Path 13404" d="M205.946,327.794v-37.44L173.508,271.6,141,290.355v37.44l32.508,18.755Z" transform="translate(118.716 -65.161)" fill="none" stroke="#fff" stroke-miterlimit="10" stroke-width="2"/>
      <path id="Path_13405-2" data-name="Path 13405" d="M159.246,354.464V316.955L126.738,298.2,94.3,316.955v37.509l32.438,18.755Z" transform="translate(132.978 -73.284)" fill="none" stroke="#fff" stroke-miterlimit="10" stroke-width="2"/>
      <path id="Path_13406-2" data-name="Path 13406" d="M205.946,219.864V182.355L173.508,163.6,141,182.355v37.509l32.508,18.755Z" transform="translate(118.716 -32.179)" fill="none" stroke="#fff" stroke-miterlimit="10" stroke-width="2"/>
      <path id="Path_13407-2" data-name="Path 13407" d="M252.746,138.564V101.055L220.238,82.3,187.8,101.055v37.509l32.438,18.755Z" transform="translate(104.424 -7.351)" fill="none" stroke="#fff" stroke-miterlimit="10" stroke-width="2"/>
      <path id="Path_13408-2" data-name="Path 13408" d="M-168.023,273.864V236.355L-200.462,217.6-232.9,236.355v37.509l32.438,18.685Z" transform="translate(232.9 -48.67)" fill="none" stroke="#fff" stroke-miterlimit="10" stroke-width="2"/>
      <path id="Path_13409-2" data-name="Path 13409" d="M205.946,165.864V128.355L173.508,109.6,141,128.355v37.509l32.508,18.755Z" transform="translate(118.716 -15.688)" fill="none" stroke="#fff" stroke-miterlimit="10" stroke-width="2"/>
      <path id="Path_13410-2" data-name="Path 13410" d="M112.446,327.794v-37.44L80.008,271.6,47.5,290.355v37.44l32.508,18.755Z" transform="translate(147.27 -65.161)" fill="none" stroke="#fff" stroke-miterlimit="10" stroke-width="2"/>
    </g>
  </g>
</svg>
